<?xml version="1.0" encoding="UTF-8"?>
<svg width="277px" height="353px" viewBox="0 0 277 353" version="1.1" xmlns="http://www.w3.org/2000/svg" xmlns:xlink="http://www.w3.org/1999/xlink">
    <!-- Generator: Sketch 42 (36781) - http://www.bohemiancoding.com/sketch -->
    <title>Imported LayersTippi</title>
    <desc>Created with Sketch.</desc>
    <defs></defs>
    <g id="Page-1" stroke="none" stroke-width="1" fill="none" fill-rule="evenodd">
        <g id="Logo-Tipi" transform="translate(-183.000000, -338.000000)">
            <g id="SPLASH-SCREEN" transform="translate(0.000000, -6.000000)">
                <g id="Imported-Layers" transform="translate(183.000000, 344.000000)">
                    <path d="M149.959773,108.055794 C149.680494,107.49636 149.101573,107.142728 148.476105,107.142728 C147.850638,107.145627 147.274626,107.505056 146.998256,108.064489 L123.655219,155.64825 C123.256665,156.462763 123.594127,157.448294 124.414508,157.845405 C125.23198,158.245415 126.221091,157.906276 126.619645,157.091763 L148.49356,112.505177 L170.751483,157.100459 C171.158765,157.914972 172.147877,158.245415 172.965348,157.839608 C173.779911,157.436699 174.111554,156.451168 173.707182,155.636656 L149.959773,108.055794 Z" id="Fill-2" fill="#FFFFFC"></path>
                    <path d="M144.519658,145.021906 L125.57526,108.038402 C125.290163,107.484765 124.71706,107.136931 124.091592,107.142728 C123.466124,107.148525 122.89884,107.505056 122.625379,108.064489 L99.2794332,155.64825 C98.8808793,156.462763 99.2212501,157.448294 100.038722,157.845405 C100.856194,158.245415 101.845305,157.906276 102.243859,157.091763 L124.138138,112.464596 L141.581415,146.514696 C141.997424,147.323411 142.989444,147.645158 143.801098,147.233554 C144.612751,146.819051 144.935667,145.830621 144.519658,145.021906" id="Fill-3" fill="#FFFFFC"></path>
                    <path d="M143.146539,117.421238 L163.618242,157.12075 C164.034251,157.926566 165.029181,158.245415 165.837925,157.830912 C166.649579,157.416409 166.966677,156.425081 166.550668,155.619264 L146.081873,115.919752 C145.665864,115.111037 144.670934,114.792189 143.859281,115.20959 C143.050537,115.624093 142.73053,116.615421 143.146539,117.421238" id="Fill-4" fill="#FFFFFC"></path>
                    <path d="M122.639925,109.539887 L147.216442,157.12075 C147.632451,157.929465 148.627381,158.245415 149.439035,157.830912 C150.247779,157.416409 150.567786,156.425081 150.151777,155.616365 L125.57235,108.035503 C125.156342,107.226788 124.161412,106.910838 123.352667,107.325341 C122.541014,107.739844 122.223916,108.731172 122.639925,109.539887" id="Fill-5" fill="#FFFFFC"></path>
                    <path d="M137.441691,71.0085197 C171.749323,71.0085197 199.659728,98.8178887 199.659728,132.998426 C199.659728,167.181863 171.749323,194.991232 137.441691,194.991232 C103.136969,194.991232 75.2265631,167.181863 75.2265631,132.998426 C75.2265631,98.8178887 103.136969,71.0085197 137.441691,71.0085197 M137.441691,67.7214836 C101.260566,67.7214836 71.9275846,96.9482782 71.9275846,132.998426 C71.9275846,169.051473 101.260566,198.278268 137.441691,198.278268 C173.625726,198.278268 202.958707,169.051473 202.958707,132.998426 C202.958707,96.9482782 173.625726,67.7214836 137.441691,67.7214836" id="Fill-6" fill="#FFFFFC"></path>
                    <text id="MAKE-A-SOUND-AND-SHA" font-family="ArialUnicodeMS, Arial Unicode MS" font-size="16" font-weight="normal" letter-spacing="0.540000021" fill="#FFFFFF">
                        <tspan x="21" y="289">MAKE A SOUND AND SHARE</tspan>
                    </text>
                    <path d="M165.497555,247.882368 C164.720811,249.224429 163.69388,250.334601 162.416763,251.209984 C161.142554,252.088266 159.719978,252.749152 158.146127,253.19554 C156.572276,253.641927 154.989697,253.865121 153.4013,253.865121 C150.58815,253.865121 147.920457,253.32018 145.404041,252.230299 C142.887624,251.140417 140.63594,249.650526 138.64608,247.766423 L138.349347,247.221482 L138.596625,246.650454 L139.19591,246.377983 L139.693375,246.627265 C141.750146,248.346147 143.879645,249.72589 146.087691,250.766495 C148.292829,251.8071 150.771426,252.328852 153.526394,252.328852 C154.919877,252.328852 156.304634,252.140442 157.683572,251.757824 C159.059601,251.378104 160.301809,250.801279 161.413105,250.024448 C162.52731,249.247618 163.42042,248.279479 164.101162,247.122929 C164.781903,245.966379 165.122274,244.609825 165.122274,243.056164 C165.122274,241.801061 164.822631,240.719875 164.226255,239.809708 C163.629879,238.899541 162.850226,238.122711 161.887297,237.479217 C160.924367,236.832825 159.821799,236.29658 158.576682,235.867584 C157.334474,235.438588 156.080629,235.064666 154.820966,234.751615 C153.558394,234.438564 152.324914,234.166093 151.111797,233.934204 C149.90159,233.702314 148.848477,233.470424 147.952458,233.238535 C146.858617,232.942875 145.805504,232.537068 144.793119,232.024013 C143.780734,231.510957 142.893442,230.876159 142.131245,230.113821 C141.366137,229.354383 140.761034,228.470303 140.313024,227.461583 C139.865015,226.455762 139.64101,225.322401 139.64101,224.067298 C139.64101,222.380301 140.030837,220.916497 140.810489,219.678786 C141.590142,218.438176 142.602527,217.414963 143.847644,216.603349 C145.092761,215.794634 146.46879,215.183025 147.97864,214.768522 C149.48849,214.356918 150.972158,214.148217 152.432552,214.148217 C153.360572,214.148217 154.413685,214.243872 155.591892,214.438079 C156.770098,214.629388 157.948305,214.910555 159.126511,215.281578 C160.301809,215.649703 161.407287,216.098989 162.434217,216.629437 C163.464057,217.156986 164.325166,217.751203 165.023363,218.412089 L165.247368,218.66137 L165.320096,219.009205 L165.072818,219.554145 L164.525898,219.800528 L164.150617,219.652698 L163.554241,219.281675 L162.957865,218.884564 L162.533129,218.612094 C161.040734,217.719318 159.449427,217.009156 157.756301,216.478709 C156.066083,215.95116 154.323501,215.687385 152.531463,215.687385 C151.268891,215.687385 149.977228,215.843911 148.650655,216.156962 C147.321172,216.472911 146.102237,216.962778 144.990941,217.623664 C143.879645,218.284549 142.96908,219.136744 142.256338,220.180247 C141.540687,221.223751 141.18577,222.470158 141.18577,223.928164 C141.18577,225.516609 141.549414,226.815191 142.276702,227.826809 C143.006899,228.83553 143.96692,229.661636 145.159672,230.308029 C146.349515,230.954421 147.708089,231.476173 149.232485,231.870386 C150.753972,232.270395 152.319095,232.650115 153.924947,233.012442 C155.530799,233.377668 157.095923,233.77478 158.61741,234.203775 C160.141806,234.63567 161.49747,235.22409 162.690223,235.969036 C163.882975,236.713981 164.842995,237.656033 165.570283,238.79809 C166.300481,239.940146 166.664125,241.40395 166.664125,243.192399 C166.664125,244.980848 166.274298,246.543205 165.497555,247.882368 Z" id="Fill-7" fill="#FFFFFF"></path>
                    <path d="M166.664125,243.192399 L166.216115,243.192399 C166.216115,244.917078 165.843744,246.395375 165.110637,247.659174 C164.362985,248.946161 163.38551,250.001259 162.163666,250.841859 C160.930186,251.691155 159.551248,252.331751 158.023943,252.766544 C156.48791,253.204235 154.948969,253.418733 153.4013,253.418733 C150.646333,253.418733 148.042642,252.888286 145.581499,251.821593 C143.111629,250.749104 140.906491,249.293996 138.95445,247.444676 L138.64608,247.766423 L139.041725,247.551925 L138.846812,247.201192 L138.939905,246.986694 L139.187183,246.873647 L139.492643,247.027274 L139.693375,246.627265 L139.405369,246.969302 C141.488322,248.708474 143.649822,250.111407 145.895687,251.169404 C148.167735,252.241893 150.716153,252.77524 153.526394,252.77524 C154.960606,252.77524 156.38609,252.581032 157.802847,252.189718 C159.222513,251.795506 160.517086,251.195491 161.67202,250.389675 C162.832771,249.578061 163.775337,248.560645 164.488079,247.349021 C165.212458,246.117107 165.570283,244.673594 165.570283,243.056164 C165.570283,241.731494 165.250277,240.554654 164.601536,239.563326 C163.97025,238.603882 163.144051,237.783572 162.137484,237.108194 C161.139645,236.438612 159.999257,235.884976 158.725048,235.444385 C157.468295,235.012491 156.202814,234.63567 154.928605,234.31972 C153.660215,234.003771 152.418007,233.728402 151.199072,233.493613 C149.991774,233.264622 148.950297,233.035631 148.065915,232.80664 L147.952458,233.238535 L148.071733,232.809539 C147.004074,232.519677 145.980053,232.125464 144.996759,231.626901 C144.022193,231.134136 143.17563,230.525426 142.448342,229.80077 C141.723963,229.079014 141.15086,228.244211 140.723215,227.281869 C140.304297,226.336918 140.091929,225.270226 140.08902,224.067298 C140.091929,222.446969 140.461391,221.075921 141.191588,219.913574 C141.936331,218.728038 142.899261,217.754102 144.092013,216.977271 C145.296402,216.194644 146.628794,215.600426 148.097916,215.200417 C149.569947,214.79461 151.012886,214.594605 152.432552,214.594605 C153.328571,214.594605 154.36132,214.687361 155.519163,214.87867 C156.674096,215.06708 157.831939,215.342449 158.989781,215.704777 C160.144715,216.070003 161.22401,216.507695 162.230577,217.023649 C163.225507,217.536705 164.054615,218.110632 164.714993,218.736734 L165.023363,218.412089 L164.68881,218.710647 L164.834268,218.870071 L164.851723,218.957029 L164.732448,219.217905 L164.514261,219.316458 L164.354258,219.252689 L163.795701,218.904854 L163.205143,218.51354 L163.202234,218.510642 L162.777497,218.238171 L162.771679,218.232374 L162.765861,218.229476 C161.241465,217.319309 159.615249,216.591755 157.890122,216.052611 C156.156267,215.510569 154.367138,215.240997 152.531463,215.240997 C151.233982,215.240997 149.904499,215.400422 148.545925,215.725067 C147.178624,216.046814 145.913142,216.554073 144.761118,217.241046 C143.597457,217.933816 142.634528,218.832389 141.883967,219.928067 C141.11595,221.052732 140.734851,222.400591 140.737761,223.928164 C140.737761,225.583277 141.11886,226.983311 141.913058,228.087685 C142.683983,229.154378 143.699278,230.026863 144.944395,230.699343 C146.174966,231.366026 147.565541,231.899372 149.119028,232.30228 C150.646333,232.70229 152.214366,233.084908 153.826036,233.450134 C155.423161,233.812462 156.979557,234.206674 158.495225,234.63567 C159.981802,235.05597 161.299648,235.626998 162.451672,236.345856 C163.59206,237.058917 164.499715,237.951692 165.192094,239.038675 C165.864108,240.087976 166.216115,241.464821 166.216115,243.192399 L167.112134,243.192399 C167.112134,241.345977 166.736853,239.792317 165.948473,238.557504 C165.186275,237.360374 164.17389,236.366147 162.928773,235.589316 C161.695293,234.821182 160.2989,234.21537 158.739594,233.77478 C157.20938,233.342885 155.638438,232.942875 154.023859,232.577649 C152.423825,232.215322 150.86161,231.835602 149.345942,231.438491 C147.850638,231.050076 146.526973,230.542817 145.37204,229.916715 C144.231652,229.299309 143.329815,228.516681 142.640346,227.565934 C141.979969,226.647071 141.633779,225.44994 141.633779,223.928164 C141.633779,222.542624 141.968332,221.39477 142.6258,220.432428 C143.303633,219.441099 144.161833,218.638181 145.220764,218.006282 C146.294241,217.368585 147.46663,216.89611 148.752475,216.591755 C150.049957,216.284501 151.30671,216.133773 152.531463,216.133773 C154.279864,216.133773 155.97299,216.39175 157.62248,216.904806 C159.280696,217.423659 160.842911,218.119328 162.303306,218.994712 L162.533129,218.612094 L162.291669,218.986016 L162.710587,219.258486 L163.306963,219.652698 L163.312781,219.655597 L163.914976,220.032418 L163.946977,220.052708 L164.360076,220.215031 L164.534625,220.287496 L165.41028,219.890385 L165.78847,219.058481 L165.68374,218.568614 L165.660467,218.449771 L165.355006,218.113531 L165.34337,218.101936 L165.331733,218.090342 C164.598627,217.394673 163.699699,216.777267 162.640767,216.232326 C161.587654,215.690284 160.458903,215.232302 159.260332,214.855481 C158.061762,214.47866 156.863191,214.191697 155.66462,213.997489 C154.468959,213.800383 153.392573,213.70183 152.432552,213.70183 C150.928521,213.70183 149.404125,213.916328 147.859365,214.339526 C146.308787,214.762725 144.886212,215.394624 143.603276,216.229427 C142.305794,217.072926 141.243953,218.148314 140.4323,219.441099 C139.603191,220.757073 139.193001,222.313632 139.19591,224.067298 C139.193001,225.374576 139.428642,226.571707 139.905743,227.644196 C140.374117,228.699294 141.011221,229.63265 141.814147,230.429771 C142.611255,231.226892 143.539274,231.890676 144.589478,232.421124 C145.628045,232.948673 146.71025,233.363175 147.836092,233.670429 L147.84191,233.670429 C148.749566,233.905217 149.811406,234.140006 151.030341,234.371895 C152.231821,234.600887 153.459483,234.873357 154.713328,235.183509 C155.958445,235.49656 157.200653,235.864685 158.431224,236.287884 C159.644341,236.708184 160.711999,237.227037 161.63711,237.850241 C162.553493,238.464748 163.286599,239.195201 163.850975,240.053192 C164.394986,240.882198 164.674265,241.870628 164.674265,243.056164 C164.674265,244.546055 164.351349,245.815651 163.714244,246.896836 C163.065503,248.001211 162.21894,248.917175 161.1571,249.659222 C160.089441,250.404168 158.893779,250.960703 157.564297,251.328828 C156.223178,251.699851 154.879149,251.882464 153.526394,251.882464 C150.829609,251.882464 148.420831,251.375206 146.279695,250.363587 C144.109468,249.340374 142.00906,247.980921 139.981381,246.285227 L139.940653,246.250444 L139.393732,245.980872 L139.201728,245.885218 L138.410439,246.244647 L138.256254,246.317112 L137.851882,247.244671 L138.253345,247.980921 L138.288255,248.041792 L138.33771,248.091068 C140.36248,250.009955 142.66071,251.528833 145.226582,252.639004 C147.798273,253.754973 150.529967,254.311509 153.4013,254.311509 C155.033334,254.311509 156.656641,254.082518 158.268312,253.624536 C159.8858,253.166553 161.354922,252.482479 162.672768,251.578109 C163.999341,250.665044 165.075728,249.502697 165.884472,248.10846 C166.707762,246.691034 167.112134,245.044618 167.112134,243.192399 L166.664125,243.192399" id="Fill-8" fill="#FFFFFF"></path>
                    <path d="M249.385866,243.192399 C249.385866,244.980848 248.99604,246.543205 248.219296,247.882368 C247.439644,249.224429 246.415622,250.334601 245.138504,251.209984 C243.864296,252.088266 242.44172,252.749152 240.867869,253.19554 C239.294018,253.641927 237.714348,253.865121 236.123042,253.865121 C233.309892,253.865121 230.642199,253.32018 228.125782,252.230299 C225.609366,251.140417 223.357682,249.650526 221.367822,247.766423 L221.071088,247.221482 L221.318366,246.650454 L221.917652,246.377983 L222.415117,246.627265 C224.471887,248.346147 226.601387,249.72589 228.809433,250.766495 C231.01457,251.8071 233.493168,252.328852 236.248135,252.328852 C237.641619,252.328852 239.026376,252.140442 240.405314,251.757824 C241.781343,251.378104 243.023551,250.801279 244.137756,250.024448 C245.246143,249.247618 246.142162,248.279479 246.822903,247.122929 C247.503645,245.966379 247.844016,244.609825 247.844016,243.056164 C247.844016,241.801061 247.544373,240.719875 246.947997,239.809708 C246.351621,238.899541 245.571968,238.122711 244.609039,237.479217 C243.646109,236.832825 242.54354,236.29658 241.301333,235.867584 C240.056215,235.438588 238.802371,235.064666 237.542708,234.751615 C236.280136,234.438564 235.046655,234.166093 233.836448,233.934204 C232.623332,233.702314 231.570219,233.470424 230.6742,233.238535 C229.580358,232.942875 228.527245,232.537068 227.51486,232.024013 C226.502475,231.510957 225.615184,230.876159 224.852986,230.113821 C224.087879,229.354383 223.482776,228.470303 223.034766,227.461583 C222.586757,226.455762 222.365661,225.322401 222.365661,224.067298 C222.365661,222.380301 222.755487,220.916497 223.53514,219.678786 C224.311884,218.438176 225.324269,217.414963 226.569386,216.603349 C227.814503,215.794634 229.190532,215.183025 230.700382,214.768522 C232.210232,214.356918 233.6939,214.148217 235.154294,214.148217 C236.082314,214.148217 237.135427,214.243872 238.313633,214.438079 C239.49184,214.629388 240.670047,214.910555 241.848253,215.281578 C243.023551,215.649703 244.129028,216.098989 245.155959,216.629437 C246.185799,217.156986 247.046908,217.751203 247.745105,218.412089 L247.969109,218.66137 L248.041838,219.009205 L247.79456,219.554145 L247.24764,219.800528 L246.872359,219.652698 L246.275983,219.281675 L245.679607,218.884564 L245.25487,218.612094 C243.762475,217.719318 242.171169,217.009156 240.478042,216.478709 C238.787825,215.95116 237.045243,215.687385 235.253205,215.687385 C233.990633,215.687385 232.69897,215.843911 231.372396,216.156962 C230.045823,216.472911 228.823979,216.962778 227.712683,217.623664 C226.601387,218.284549 225.690822,219.136744 224.97808,220.180247 C224.262428,221.223751 223.907512,222.470158 223.907512,223.928164 C223.907512,225.516609 224.271156,226.815191 224.998444,227.826809 C225.728641,228.83553 226.688661,229.661636 227.881414,230.308029 C229.071257,230.954421 230.429831,231.476173 231.954227,231.870386 C233.475713,232.270395 235.040837,232.650115 236.646689,233.012442 C238.252541,233.377668 239.817665,233.77478 241.339152,234.203775 C242.863547,234.63567 244.219212,235.22409 245.411965,235.969036 C246.604717,236.713981 247.564737,237.656033 248.292025,238.79809 C249.022222,239.940146 249.385866,241.40395 249.385866,243.192399" id="Fill-9" fill="#FFFFFF"></path>
                    <path d="M249.385866,243.192399 L248.937857,243.192399 C248.937857,244.917078 248.565485,246.395375 247.832379,247.659174 C247.084727,248.946161 246.107252,250.001259 244.885408,250.841859 C243.651927,251.691155 242.272989,252.331751 240.745684,252.766544 C239.209652,253.204235 237.670711,253.418733 236.123042,253.418733 C233.365165,253.418733 230.764383,252.888286 228.30615,251.821593 C225.83337,250.749104 223.628233,249.293996 221.679101,247.444676 L221.367822,247.766423 L221.763467,247.551925 L221.568553,247.198293 L221.661646,246.986694 L221.908924,246.873647 L222.214385,247.027274 L222.415117,246.627265 L222.127111,246.969302 C224.210064,248.708474 226.371564,250.111407 228.617429,251.169404 C230.889477,252.241893 233.437894,252.77524 236.248135,252.77524 C237.682347,252.77524 239.107832,252.581032 240.524589,252.189718 C241.947164,251.795506 243.238828,251.195491 244.393761,250.389675 C245.554513,249.578061 246.497078,248.560645 247.209821,247.349021 C247.934199,246.117107 248.292025,244.673594 248.292025,243.056164 C248.292025,241.731494 247.972018,240.554654 247.323277,239.563326 C246.691991,238.603882 245.865792,237.783572 244.859226,237.108194 C243.861386,236.438612 242.720999,235.884976 241.44679,235.444385 C240.190036,235.012491 238.924555,234.63567 237.650347,234.31972 C236.381956,234.003771 235.139748,233.728402 233.920813,233.493613 C232.713515,233.264622 231.672039,233.035631 230.787657,232.80664 L230.6742,233.238535 L230.793475,232.809539 C229.725816,232.519677 228.701795,232.125464 227.718501,231.626901 C226.743935,231.134136 225.897372,230.525426 225.170084,229.80077 C224.445705,229.079014 223.872602,228.244211 223.444957,227.281869 C223.026039,226.336918 222.813671,225.270226 222.810761,224.067298 C222.813671,222.446969 223.183133,221.075921 223.91333,219.913574 C224.658073,218.728038 225.621002,217.754102 226.813755,216.977271 C228.018144,216.194644 229.350535,215.600426 230.819657,215.200417 C232.291688,214.79461 233.734628,214.594605 235.154294,214.594605 C236.050313,214.594605 237.083062,214.687361 238.240904,214.87867 C239.395838,215.06708 240.55368,215.342449 241.711523,215.704777 C242.866456,216.070003 243.945752,216.507695 244.952318,217.023649 C245.947249,217.536705 246.776357,218.110632 247.436734,218.736734 L247.745105,218.412089 L247.410552,218.710647 L247.55601,218.870071 L247.573465,218.957029 L247.457098,219.217905 L247.236003,219.316458 L247.076,219.252689 L246.517442,218.904854 L245.926884,218.51354 L245.923975,218.510642 L245.499239,218.238171 L245.493421,218.232374 L245.487602,218.229476 C243.963207,217.319309 242.336991,216.591755 240.611863,216.052611 C238.878009,215.510569 237.08888,215.240997 235.253205,215.240997 C233.955723,215.240997 232.626241,215.400422 231.267667,215.725067 C229.900365,216.046814 228.634884,216.554073 227.48286,217.241046 C226.319199,217.933816 225.35627,218.832389 224.605708,219.928067 C223.837692,221.052732 223.456593,222.400591 223.459502,223.928164 C223.459502,225.583277 223.840601,226.983311 224.6348,228.087685 C225.405725,229.154378 226.421019,230.026863 227.666136,230.699343 C228.893799,231.366026 230.287282,231.899372 231.84077,232.30228 C233.368075,232.70229 234.936108,233.084908 236.547778,233.450134 C238.144902,233.812462 239.701299,234.206674 241.216967,234.63567 C242.703544,235.05597 244.02139,235.626998 245.173414,236.345856 C246.313802,237.058917 247.221457,237.951692 247.916745,239.038675 C248.58585,240.087976 248.937857,241.464821 248.937857,243.192399 L249.833876,243.192399 C249.833876,241.345977 249.458595,239.792317 248.670215,238.557504 C247.908017,237.360374 246.895632,236.366147 245.650515,235.589316 C244.417034,234.821182 243.020641,234.21537 241.461336,233.77478 C239.931122,233.342885 238.36018,232.942875 236.7456,232.577649 C235.142657,232.215322 233.583352,231.835602 232.067684,231.438491 C230.572379,231.050076 229.248715,230.542817 228.093782,229.916715 C226.953394,229.299309 226.051557,228.516681 225.362088,227.565934 C224.70171,226.647071 224.355521,225.44994 224.355521,223.928164 C224.355521,222.542624 224.690074,221.39477 225.347542,220.432428 C226.025375,219.441099 226.883574,218.638181 227.942506,218.006282 C229.013074,217.368585 230.188371,216.89611 231.474217,216.591755 C232.771698,216.284501 234.028452,216.133773 235.253205,216.133773 C237.001606,216.133773 238.694732,216.39175 240.344221,216.904806 C242.002438,217.423659 243.564653,218.119328 245.025047,218.994712 L245.25487,218.612094 L245.013411,218.986016 L245.432329,219.258486 L246.028705,219.652698 L246.034523,219.655597 L246.636718,220.032418 L246.668718,220.052708 L247.078909,220.215031 L247.256367,220.287496 L247.980746,219.959952 L248.132022,219.890385 L248.449119,219.191818 L248.513121,219.058481 L248.405482,218.568614 L248.382209,218.449771 L248.076748,218.113531 L248.065111,218.101936 L248.053475,218.090342 C247.320368,217.394673 246.42144,216.777267 245.362509,216.232326 C244.309396,215.690284 243.180645,215.232302 241.982074,214.855481 C240.783503,214.47866 239.584933,214.191697 238.386362,213.997489 C237.190701,213.800383 236.114314,213.70183 235.154294,213.70183 C233.650262,213.70183 232.125867,213.916328 230.581107,214.339526 C229.030529,214.762725 227.607953,215.394624 226.325017,216.229427 C225.027535,217.072926 223.965695,218.148314 223.154041,219.441099 C222.324933,220.757073 221.914743,222.313632 221.917652,224.067298 C221.914743,225.374576 222.150384,226.571707 222.627485,227.644196 C223.095858,228.699294 223.732963,229.63265 224.535889,230.429771 C225.332996,231.226892 226.261016,231.890676 227.31122,232.421124 C228.349787,232.948673 229.431992,233.363175 230.557834,233.670429 L230.563652,233.670429 C231.471307,233.905217 232.533148,234.140006 233.752083,234.371895 C234.953563,234.600887 236.181225,234.873357 237.435069,235.183509 C238.680186,235.49656 239.922394,235.864685 241.152966,236.287884 C242.366082,236.708184 243.433741,237.227037 244.358851,237.850241 C245.275234,238.464748 246.01125,239.195201 246.572716,240.053192 C247.116728,240.882198 247.396006,241.870628 247.396006,243.056164 C247.396006,244.546055 247.070181,245.815651 246.435986,246.896836 C245.787245,248.001211 244.940682,248.917175 243.878841,249.659222 C242.811182,250.404168 241.615521,250.960703 240.286038,251.328828 C238.944919,251.699851 237.600891,251.882464 236.248135,251.882464 C233.551351,251.882464 231.139664,251.375206 229.001437,250.363587 C226.83121,249.340374 224.733711,247.980921 222.703123,246.285227 L222.662395,246.250444 L222.115474,245.980872 L221.92347,245.885218 L221.132181,246.244647 L220.977996,246.317112 L220.573623,247.244671 L220.975086,247.980921 L221.009996,248.041792 L221.059452,248.091068 C223.084222,250.009955 225.382452,251.528833 227.948324,252.639004 C230.520015,253.754973 233.251708,254.311509 236.123042,254.311509 C237.755076,254.311509 239.378383,254.082518 240.990053,253.624536 C242.607542,253.166553 244.076664,252.482479 245.39451,251.578109 C246.721083,250.665044 247.797469,249.502697 248.606214,248.10846 C249.429504,246.691034 249.833876,245.044618 249.833876,243.192399 L249.385866,243.192399" id="Fill-10" fill="#FFFFFF"></path>
                    <path d="M86.0457,253.340471 L66.4903792,214.154015 C66.2605561,213.696033 65.7834552,213.403272 65.2685353,213.403272 C64.7536153,213.40617 64.2794235,213.70183 64.0525097,214.16271 L44.8288322,253.349167 C44.500098,254.021647 44.7793766,254.830362 45.4513907,255.157906 C46.126314,255.488349 46.9408766,255.210081 47.2696108,254.537601 L65.283081,217.817871 L83.6136488,254.546297 C83.9482013,255.215878 84.7627639,255.488349 85.434778,255.155007 C86.1067922,254.821666 86.3802525,254.010052 86.0457,253.340471" id="Fill-11" fill="#FFFFFF"></path>
                    <path d="M62.0102848,244.59823 L46.4085018,214.14242 C46.1757696,213.684438 45.704487,213.400373 45.1866579,213.403272 C44.671738,213.409069 44.2062736,213.70183 43.9793597,214.16271 L24.7556823,253.349167 C24.4269481,254.021647 24.7033175,254.830362 25.3782408,255.157906 C26.0531641,255.488349 26.8677267,255.210081 27.1964609,254.537601 L45.2244769,217.785987 L59.5898702,245.827245 C59.9331502,246.493928 60.750622,246.757703 61.419727,246.418564 C62.0859228,246.079425 62.3506556,245.264913 62.0102848,244.59823" id="Fill-12" fill="#FFFFFF"></path>
                    <path d="M60.8786246,221.867245 L77.7371614,254.56079 C78.0804414,255.227473 78.8979131,255.488349 79.5670181,255.146312 C80.233214,254.804274 80.4979468,253.989762 80.1546669,253.323079 L63.2961301,220.632432 C62.9528501,219.96575 62.1353784,219.704874 61.4662734,220.046911 C60.8000775,220.388948 60.5353447,221.203461 60.8786246,221.867245" id="Fill-13" fill="#FFFFFF"></path>
                    <path d="M43.9909964,215.377233 L64.2328771,254.563689 C64.576157,255.227473 65.3936288,255.488349 66.0598246,255.146312 C66.7289296,254.804274 66.9907533,253.989762 66.6474734,253.323079 L46.4085018,214.139522 C46.0652218,213.472839 45.2448409,213.211963 44.5786451,213.554 C43.9095401,213.896037 43.6477164,214.713448 43.9909964,215.377233" id="Fill-14" fill="#FFFFFF"></path>
                    <path d="M132.027759,253.041913 L112.469529,213.858355 C112.239706,213.397475 111.762605,213.104714 111.247685,213.107612 C110.732765,213.107612 110.258573,213.403272 110.03166,213.867051 L90.8079821,253.050609 C90.4792479,253.723089 90.7585265,254.534702 91.4334498,254.862247 C92.1054639,255.189791 92.9200266,254.911523 93.2487607,254.239043 L111.262231,217.522212 L129.592799,254.247739 C129.927351,254.91732 130.741914,255.189791 131.413928,254.856449 C132.085942,254.526007 132.359402,253.711494 132.027759,253.041913" id="Fill-15" fill="#FFFFFF"></path>
                    <path d="M214.199671,253.041913 L194.64435,213.858355 C194.414527,213.397475 193.937426,213.104714 193.422506,213.107612 C192.907586,213.107612 192.433395,213.403272 192.206481,213.867051 L172.982803,253.050609 C172.654069,253.723089 172.933348,254.534702 173.605362,254.862247 C174.280285,255.189791 175.094848,254.911523 175.423582,254.239043 L193.437052,217.522212 L211.76762,254.247739 C212.102172,254.91732 212.916735,255.189791 213.588749,254.856449 C214.260763,254.526007 214.534223,253.711494 214.199671,253.041913" id="Fill-17" fill="#FFFFFF"></path>
                    <path d="M189.032596,221.571586 L205.891132,254.265131 C206.234412,254.928915 207.054793,255.192689 207.720989,254.850652 C208.390094,254.508615 208.651918,253.691204 208.308638,253.02742 L191.450101,220.333874 C191.106821,219.667192 190.289349,219.406316 189.620244,219.748353 C188.954049,220.09039 188.692225,220.904903 189.032596,221.571586" id="Fill-18" fill="#FFFFFF"></path>
                    <path d="M177.284725,0.797400205 L157.889407,39.0157169 C157.525763,39.7287776 157.813769,40.6012625 158.529421,40.9635901 C159.247981,41.3230191 160.120727,41.0389543 160.484371,40.3229949 L179.879688,2.10467823 C180.243332,1.39161749 179.955326,0.519132598 179.239675,0.156804985 C178.521114,-0.205522629 177.648369,0.0814408411 177.284725,0.797400205" id="Fill-20" fill="#FFFFFF"></path>
                    <path d="M19.6507249,311.57659 L0.255407446,349.794907 C-0.108236574,350.507967 0.17976949,351.380452 0.895420922,351.74278 C1.61398151,352.102209 2.48672715,351.818144 2.85037117,351.102185 L22.2456886,312.883868 C22.6093327,312.170807 22.3213266,311.298322 21.6056752,310.935995 C20.8871146,310.573667 20.0143689,310.86063 19.6507249,311.57659" id="Fill-20-Copy" fill="#FFFFFF"></path>
                    <path d="M203.222869,0.797400205 L183.827552,39.0157169 C183.463908,39.7287776 183.751914,40.6012625 184.467565,40.9635901 C185.186126,41.3230191 186.058871,41.0389543 186.422515,40.3229949 L205.817833,2.10467823 C206.181477,1.39161749 205.893471,0.519132598 205.177819,0.156804985 C204.459259,-0.205522629 203.586513,0.0814408411 203.222869,0.797400205" id="Fill-22" fill="#FFFFFF"></path>
                    <path d="M44.5888692,311.57659 L25.1935518,349.794907 C24.8299078,350.507967 25.1179138,351.380452 25.8335653,351.74278 C26.5521258,352.102209 27.4248715,351.818144 27.7885155,351.102185 L47.183833,312.883868 C47.547477,312.170807 47.2594709,311.298322 46.5438195,310.935995 C45.8252589,310.573667 44.9525133,310.86063 44.5888692,311.57659" id="Fill-22-Copy" fill="#FFFFFF"></path>
                    <path d="M91.5904381,2.10467823 L111.186487,40.720106 C111.550131,41.4360653 112.425786,41.7230288 113.141437,41.3607012 C113.859998,40.9983736 114.145095,40.1287873 113.78436,39.4128279 L94.1854018,0.797400205 C93.824667,0.0814408411 92.9490122,-0.205522629 92.2304516,0.156804985 C91.5148002,0.519132598 91.2267941,1.39161749 91.5904381,2.10467823" id="Fill-24" fill="#FFFFFF"></path>
                    <path d="M273.619477,351.810493 C273.983121,352.526453 274.858776,352.813416 275.574427,352.451088 C276.292988,352.088761 276.578085,351.219175 276.21735,350.503215 L256.618392,311.887788 C256.257657,311.171828 255.382002,310.884865 254.663441,311.247192 C253.94779,311.60952 253.659784,312.482005 254.023428,313.195066 L273.619477,351.810493 Z" id="Fill-24-Copy" fill="#FFFFFF"></path>
                    <path d="M83.178067,2.10467823 L102.96612,41.0969267 C103.329764,41.812886 104.205419,42.0998495 104.92107,41.7375219 C105.636722,41.3751943 105.924728,40.505608 105.563993,39.7896487 L85.7730307,0.797400205 C85.4122958,0.0814408411 84.536641,-0.205522629 83.8180805,0.156804985 C83.102429,0.519132598 82.814423,1.39161749 83.178067,2.10467823" id="Fill-26" fill="#FFFFFF"></path>
                    <path d="M244.910026,312.895462 L264.698079,351.887711 C265.061723,352.60367 265.937378,352.890634 266.653029,352.528306 C267.36868,352.165978 267.656686,351.296392 267.295952,350.580433 L247.504989,311.588184 C247.144255,310.872225 246.2686,310.585262 245.550039,310.947589 C244.834388,311.309917 244.546382,312.182402 244.910026,312.895462" id="Fill-26-Copy" fill="#FFFFFF"></path>
                </g>
            </g>
        </g>
    </g>
</svg>